<svg xmlns="http://www.w3.org/2000/svg" width="120" height="120" viewBox="0 0 120 120">
  <defs>
    <linearGradient id="hl_top" x1="0" y1="0" x2="1" y2="0">
      <stop offset="0" stop-color="#7a8faa" stop-opacity="1.0"/>
      <stop offset="1" stop-color="#3a4a5e" stop-opacity="0.2"/>
    </linearGradient>
    <linearGradient id="hl_left" x1="0" y1="0" x2="0" y2="1">
      <stop offset="0" stop-color="#7a8faa" stop-opacity="1.0"/>
      <stop offset="1" stop-color="#3a4a5e" stop-opacity="0.2"/>
    </linearGradient>
    <linearGradient id="sh_right" x1="0" y1="0" x2="0" y2="1">
      <stop offset="0" stop-color="#0d1018" stop-opacity="0.4"/>
      <stop offset="1" stop-color="#050608" stop-opacity="1.0"/>
    </linearGradient>
    <linearGradient id="sh_bottom" x1="0" y1="0" x2="1" y2="0">
      <stop offset="0" stop-color="#0d1018" stop-opacity="0.4"/>
      <stop offset="1" stop-color="#050608" stop-opacity="1.0"/>
    </linearGradient>

    <linearGradient id="inner_top" x1="0" y1="0" x2="0" y2="1">
      <stop offset="0" stop-color="#020304" stop-opacity="0.9"/>
      <stop offset="1" stop-color="#020304" stop-opacity="0.0"/>
    </linearGradient>
    <linearGradient id="inner_left" x1="0" y1="0" x2="1" y2="0">
      <stop offset="0" stop-color="#020304" stop-opacity="0.9"/>
      <stop offset="1" stop-color="#020304" stop-opacity="0.0"/>
    </linearGradient>

    <linearGradient id="mat_top" x1="0" y1="0" x2="1" y2="0">
      <stop offset="0" stop-color="#030406" stop-opacity="0.9"/>
      <stop offset="1" stop-color="#030406" stop-opacity="0.2"/>
    </linearGradient>
    <linearGradient id="mat_left" x1="0" y1="0" x2="0" y2="1">
      <stop offset="0" stop-color="#030406" stop-opacity="0.9"/>
      <stop offset="1" stop-color="#030406" stop-opacity="0.2"/>
    </linearGradient>
    <linearGradient id="mat_right" x1="0" y1="0" x2="0" y2="1">
      <stop offset="0" stop-color="#3a4e62" stop-opacity="0.2"/>
      <stop offset="1" stop-color="#3a4e62" stop-opacity="0.7"/>
    </linearGradient>
    <linearGradient id="mat_bottom" x1="0" y1="0" x2="1" y2="0">
      <stop offset="0" stop-color="#3a4e62" stop-opacity="0.2"/>
      <stop offset="1" stop-color="#3a4e62" stop-opacity="0.7"/>
    </linearGradient>

    <clipPath id="photo_clip">
      <rect x="25" y="25" width="70" height="70" rx="1"/>
    </clipPath>

    <radialGradient id="glow" cx="50%" cy="50%" r="50%">
      <stop offset="0" stop-color="#3ee8c0" stop-opacity="0.15"/>
      <stop offset="1" stop-color="#3ee8c0" stop-opacity="0.0"/>
    </radialGradient>
  </defs>

  <!-- Background -->
  <rect x="0" y="0" width="120" height="120" fill="#0d1117"/>

  <!-- Drop shadow -->
  <rect x="3" y="3" width="117" height="117" rx="4" fill="#07090f"/>

  <!-- Frame body -->
  <rect x="0" y="0" width="120" height="120" rx="4" fill="#222b3a"/>

  <!-- Outer bevel edges -->
  <rect x="0"   y="0"   width="120" height="4"   fill="url(#hl_top)"/>
  <rect x="0"   y="0"   width="4"   height="120" fill="url(#hl_left)"/>
  <rect x="116" y="0"   width="4"   height="120" fill="url(#sh_right)"/>
  <rect x="0"   y="116" width="120" height="4"   fill="url(#sh_bottom)"/>

  <!-- Display area -->
  <rect x="16" y="16" width="88" height="88" rx="2" fill="#0d1520"/>

  <!-- Display inner shadow -->
  <rect x="16" y="16" width="88" height="10" fill="url(#inner_top)"/>
  <rect x="16" y="16" width="10" height="88" fill="url(#inner_left)"/>

  <!-- Matte groove bevel -->
  <rect x="20" y="20" width="80" height="3" fill="url(#mat_top)"/>
  <rect x="20" y="20" width="3"  height="80" fill="url(#mat_left)"/>
  <rect x="97" y="20" width="3"  height="80" fill="url(#mat_right)"/>
  <rect x="20" y="97" width="80" height="3"  fill="url(#mat_bottom)"/>

  <!-- Photo area -->
  <rect x="25" y="25" width="70" height="70" rx="1" fill="#090d14"/>

  <!-- Phosphor: radial burst of glowing particles from center -->
  <g clip-path="url(#photo_clip)">
    <!-- Soft background glow -->
    <circle cx="60" cy="58" r="28" fill="url(#glow)"/>

    <!-- Core: bright central particle -->
    <circle cx="60" cy="58" r="5.0" fill="#3ee8c0" opacity="0.95"/>

    <!-- Ring 1: inner burst (6 particles) -->
    <circle cx="60"   cy="44"   r="3.2" fill="#3ee8c0" opacity="0.85"/>
    <circle cx="72"   cy="51"   r="3.0" fill="#5bf5d0" opacity="0.80"/>
    <circle cx="72"   cy="65"   r="2.8" fill="#3ee8c0" opacity="0.78"/>
    <circle cx="60"   cy="72"   r="3.2" fill="#2dd4aa" opacity="0.82"/>
    <circle cx="48"   cy="65"   r="2.8" fill="#5bf5d0" opacity="0.76"/>
    <circle cx="48"   cy="51"   r="3.0" fill="#3ee8c0" opacity="0.80"/>

    <!-- Ring 2: outer burst (8 particles, decaying) -->
    <circle cx="60"   cy="30"   r="2.2" fill="#f5c800" opacity="0.70"/>
    <circle cx="76"   cy="36"   r="2.0" fill="#3ee8c0" opacity="0.62"/>
    <circle cx="84"   cy="52"   r="1.8" fill="#a855f7" opacity="0.58"/>
    <circle cx="82"   cy="72"   r="2.0" fill="#f5c800" opacity="0.55"/>
    <circle cx="68"   cy="84"   r="2.2" fill="#ff7043" opacity="0.60"/>
    <circle cx="50"   cy="84"   r="1.8" fill="#a855f7" opacity="0.55"/>
    <circle cx="36"   cy="74"   r="2.0" fill="#f03e6e" opacity="0.58"/>
    <circle cx="36"   cy="42"   r="1.8" fill="#ff7043" opacity="0.60"/>

    <!-- Ring 3: faint scattered particles -->
    <circle cx="52"   cy="28"   r="1.2" fill="#3ee8c0" opacity="0.40"/>
    <circle cx="86"   cy="62"   r="1.0" fill="#5bf5d0" opacity="0.35"/>
    <circle cx="74"   cy="88"   r="1.3" fill="#3ee8c0" opacity="0.38"/>
    <circle cx="34"   cy="84"   r="1.0" fill="#2dd4aa" opacity="0.32"/>
    <circle cx="30"   cy="34"   r="1.2" fill="#5bf5d0" opacity="0.36"/>
    <circle cx="88"   cy="40"   r="1.0" fill="#2dd4aa" opacity="0.30"/>
  </g>
</svg>
